<?xml version="1.0" encoding="UTF-8"?>
<svg xmlns="http://www.w3.org/2000/svg" id="Layer_1" data-name="Layer 1" viewBox="0 0 50 50">
  <style>
  .pathStyle {
    fill: #fff;
  }
  </style>
  <path class="pathStyle" transform="translate(0, 7)" d="m46.23,28.83c2.56-3.82,3.53-8.42,2.73-12.94-.78-4.41-2.95-8.04-6.44-10.81-3.82-3.02-8.26-4.27-13.21-3.7-2.3.26-4.53,1-6.62,2.2-.31.18-.41.42-.27.67.06.1.14.17.25.2.14.04.3,0,.47-.09,2.82-1.6,5.91-2.34,9.19-2.2.02,0,.04,0,.07,0l.19.03-.69.73c-.35.37-.7.75-1.05,1.12-.49.53-1.12.92-1.92,1.2l-.19.06c-.43.15-.86.3-1.27.49-.88.41-1.49,1-1.82,1.78-.16.37-.12.74.13,1.02.24.28.58.37.96.26l.2-.06c.43-.13.87-.26,1.26-.47,1.06-.56,2.07-.56,3.2-.01,1.09.54,2.15.78,3.23.74.85-.03,1.52.39,1.88,1.18.06.14.09.39,0,.49-.09.1-.35.09-.49.05-.2-.05-.4-.13-.58-.21l-.17-.07c-.62-.24-1.21-.27-1.79-.06-.35.12-.71.18-1.05.24-.58.09-.83-.09-.94-.69-.16-.86-.61-1.24-1.46-1.24-1.25,0-2.38.46-3.23.86-1.93.9-3.28,2.11-4.12,3.67-.81,1.51-.93,3.04-.38,4.55.39,1.07,1.1,1.69,2.06,1.82.45.06.95-.05,1.42-.18,1.29-.36,2.36-.03,3.26,1.02.74.86,1.16,1.92,1.35,3.45.07.54.12,1.08.18,1.61.06.56.12,1.19.2,1.8.1.76.29,1.74.9,2.55.53.71,1.25.99,2.14.81,1.12-.22,1.94-.87,2.44-1.93.42-.89.91-1.51,1.53-1.94,1.02-.71,1.5-1.71,1.41-2.97-.06-.89.23-1.66.89-2.36l.28-.3c.5-.53,1.01-1.08,1.48-1.65.33-.41.59-.85.74-1.27.12-.33.09-.67-.08-.96-.18-.31-.49-.52-.86-.59-.26-.05-.55-.05-.93-.02-.74.07-1.48-.21-2.03-.76-.52-.52-.81-1.21-.8-1.94v-.37s.26.44.26.44c.12.2.23.39.34.57.58.92,1.4,1.39,2.41,1.39l.04.1h0v-.1c.65,0,1.28-.18,1.95-.51.98-.5,1.22-1.22.73-2.2-.05-.1-.1-.19-.15-.31l-.2-.4.28.14c.37.19.59.46.77.72.32.47.65.96.96,1.44l.05.08c.23.35.46.69.69,1.04.57.85,1.2,1.74,2.08,2.37.18.13.25.27.25.49,0,1.34-.14,2.62-.42,3.81-1.97,8.42-9.92,13.98-18.51,12.94-2.78-.34-5.37-1.35-7.69-3.01-.14-.1-.27-.27-.34-.44-.36-.86-.48-1.76-.58-2.6-.04-.34-.08-.69-.11-1.03v-.03c-.09-.82-.18-1.67-.32-2.49-.28-1.66-1.02-3.04-2.2-4.11-.23-.21-.49-.22-.67-.03-.09.09-.14.2-.13.31,0,.13.07.26.2.38,1.02.94,1.65,2.06,1.86,3.34.2,1.22.35,2.41.52,3.67l.04.3c.05.39.1.78.15,1.18l.03.26-.2-.17c-.06-.05-.11-.09-.15-.14-.19-.21-.38-.42-.57-.63l-.03-.03c-.46-.51-.93-1.03-1.34-1.59-1.68-2.29-2.71-4.94-3.07-7.89-.14-1.18-.14-2.45,0-3.87.03-.31.15-.45.46-.51.75-.16,1.46-.47,2.09-.95,1.63-1.22,2.5-3,2.59-5.28.1-2.53-.76-4.95-2.55-7.17-.09-.11-.23-.23-.41-.22-.15,0-.3.12-.41.3l-.03.04c-.24.39-.49.79-.77,1.16-.35.46-.72.92-1.07,1.36l-.02.02c-.53.66-1.07,1.34-1.59,2.04-.92,1.24-1.39,2.38-1.48,3.58-.05.73.02,1.45.22,2.14.07.26.29.39.54.33.25-.07.38-.29.32-.57v-.03c-.02-.05-.03-.1-.04-.15-.32-1.31-.16-2.52.46-3.59.42-.73.93-1.48,1.56-2.31.53-.7,1.07-1.36,1.65-2.07.24-.29.47-.58.71-.87l.09-.11.08.12c.07.11.14.22.21.33.17.27.36.58.52.88,1.15,2.21,1.44,4.28.9,6.31-.5,1.89-1.63,3.14-3.37,3.73-.06.02-.13.04-.21.06l-.21.05.09-.4c.05-.21.09-.4.14-.59.29-1.1.7-2.2,1.24-3.26.09-.18.1-.36.02-.5-.06-.12-.18-.19-.33-.21-.28-.03-.42.16-.52.36-1.35,2.72-1.97,5.63-1.84,8.63,0,.1,0,.2,0,.3v.27l-.18-.19c-.06-.07-.13-.15-.19-.22l-.06-.07c-.27-.31-.52-.61-.81-.87-.35-.31-.45-.66-.5-1.08-.21-1.93-1.15-3.29-2.78-4.07-1.26-.6-2.67-.73-4.32-.4-1.49.3-2.91.95-4.23,1.94-.11.08-.23.21-.23.39,0,.15.08.29.24.41l.21.16c.61.46,1.23.94,1.83,1.45l.36.31c.81.69,1.64,1.41,2.58,1.94,1.18.66,2.44.84,3.76.52.14-.04.26-.11.32-.22.05-.09.07-.21.04-.32-.07-.25-.27-.37-.57-.33l-.14.02c-.33.04-.75.09-1.14.08-.86-.01-1.7-.34-2.5-.97-.69-.54-1.37-1.12-2.03-1.67l-.03-.03c-.3-.25-.59-.5-.89-.75l-.75-.62.1-.08s.04-.04.07-.05c1.36-.87,2.71-1.34,4.14-1.45,1.38-.11,2.51.18,3.47.86.82.59,1.33,1.42,1.56,2.54l.04.21-.19-.1s-.08-.04-.11-.06c-.77-.46-1.63-.81-2.57-1.01-.05-.01-.09-.02-.13-.02-.17,0-.31.08-.38.25-.11.22-.06.42.12.55.09.06.21.1.32.13h.03c2.92.79,4.92,2.76,6.11,6.02,2.07,7.8,9.13,13.24,17.17,13.24,1.27,0,2.55-.14,3.8-.41,4.47-.97,8.35-3.61,10.91-7.43Zm1.86-11.55l-.05-.06c-.11-.14-.22-.28-.33-.42-.27-.34-.54-.69-.79-1.04-.27-.39-.53-.79-.78-1.17-.3-.46-.64-.99-.99-1.48-.24-.34-.56-.67-1.01-1.04-.31-.26-.72-.32-1.15-.18-.26.09-.44.24-.53.44-.09.19-.09.43,0,.68.07.17.16.35.23.5.07.13.12.24.17.35.17.38.12.56-.24.77-.59.35-1.16.51-1.75.51-.61,0-1.09-.24-1.43-.69-.14-.18-.26-.39-.38-.58-.07-.11-.12-.21-.18-.3-.04-.07-.09-.14-.13-.21-.12-.2-.24-.38-.37-.55-.22-.27-.51-.36-.83-.28-.31.08-.51.32-.54.65-.04.45-.06.88.02,1.29.1.48.28.98.51,1.42.66,1.25,1.75,1.82,3.24,1.71h.1c.13-.02.26-.03.39-.03.21,0,.36.08.43.2.05.08.07.22-.05.43-.2.36-.46.72-.77,1.07-.32.38-.66.75-.99,1.11l-.04.05c-.22.25-.45.49-.67.74-.65.73-.95,1.58-.9,2.53.01.21,0,.45-.02.74-.06.66-.35,1.17-.86,1.53-.88.62-1.54,1.44-2.03,2.5-.32.71-.88,1.16-1.66,1.35-.15.03-.28.05-.41.05-.43,0-.76-.2-1.03-.62-.33-.52-.54-1.15-.65-1.98-.07-.56-.13-1.13-.19-1.68-.08-.72-.15-1.45-.26-2.16-.23-1.62-.8-2.86-1.73-3.78-1.11-1.11-2.43-1.46-3.89-1.04-.11.03-.22.06-.33.09-.95.24-1.61-.07-2.03-.94-.46-.96-.51-2.02-.14-3.17.34-1.08,1.01-2.03,1.97-2.82,1.36-1.13,2.89-1.83,4.52-2.09.16-.02.34-.03.56-.02.25.01.4.15.43.39.07.59.29,1.01.65,1.27.4.29.99.35,1.71.19l.15-.03c.19-.04.38-.08.56-.15.44-.17.88-.15,1.43.06l.05.02c.37.14.75.29,1.13.31.4.03.74-.11.97-.38.24-.28.32-.69.22-1.11-.24-1.02-1.21-1.87-2.31-2.02-.3-.04-.6-.06-.88-.05-.65.02-1.24-.15-1.92-.41-.22-.09-.44-.17-.66-.26l-.12-.05c-.2-.08-.4-.16-.6-.24-.77-.3-1.54-.3-2.3.01-.61.25-1.11.45-1.59.64-.12.05-.24.08-.37.1l-.21.03.1-.18c.28-.51.69-.89,1.22-1.14.38-.18.8-.34,1.29-.5,1.1-.35,2.03-.98,2.77-1.85.23-.27.48-.55.83-.91.76-.78,1.71-1.04,2.83-.77,6.42,1.57,11.35,6.76,12.54,13.23.06.3.1.61.14.9l.07.45-.17.07Zm-5.18,9.12c.06-.24.07-.53.02-.86-.06-.4-.28-.66-.65-.75-.32-.08-.59.05-.84.39-.02.03-.04.05-.06.08-.04.06-.08.12-.13.17-.1.11-.2.22-.31.33-.26.29-.52.58-.81.84-.5.45-.74,1-.78,1.76,0,.03.01.07.02.12.02.15.05.33.1.49.09.29.25.49.46.58.21.09.46.08.74-.04.25-.11.5-.28.69-.47.74-.72,1.26-1.61,1.54-2.65Zm-2.43,2.23l-.13.1-.04-.16c-.1-.48-.01-.86.28-1.16.31-.31.63-.61.96-.92l.58-.54-.14.4c-.35,1.01-.83,1.73-1.52,2.29Z"/>
</svg>